<svg id="Group_9" data-name="Group 9" xmlns="http://www.w3.org/2000/svg" width="223.588" height="103.96" viewBox="0 0 223.588 103.96">
  <path id="Path_267" data-name="Path 267" d="M1045.511,181.917c0-.61.687,0,1.373-.61.61,0,1.22-1.373,1.906-1.981,1.3-1.3,1.3-2.593,2.592-3.889.687-1.9,1.906-3.277,3.279-5.183.609-1.3,1.219-3.279,2.592-4.5-.686-.686-.686,0-1.373.61h-1.219c-1.373.609-1.983,1.3-3.279,1.3,0-1.906,2.592-1.3,3.279-3.279.609,0,.609.687.609.687,1.3-.687,1.983-1.3,3.2-1.3,1.373-.61,1.983-1.983,3.279-2.593,0,1.3-.686,1.3-1.3,1.983,0,0-1.3,1.219-1.983,1.906-1.219,2.592-1.9,5.183-4.5,7.089-1.3,3.964-3.888,6.556-6.479,9.758C1046.883,181.917,1046.2,182.527,1045.511,181.917ZM1108.4,152.8v.61c0,.61-.686.61-.686.61,0,1.371-.61,1.371-.61,1.371-.61,1.22-1.3,1.22-1.3,2.592l-.686.61h-.61c-1.3,3.2-3.887,5.185-5.793,7.776-3.279,1.981-5.183,3.887-9.148,5.793a2.261,2.261,0,0,1-.61,1.373c-1.3,0-1.3-1.983-1.983-3.279a16.988,16.988,0,0,1-1.9-3.279,18.832,18.832,0,0,0-3.279-6.4c0-.687-.61.609-.61.609a6.8,6.8,0,0,1-.609-2.592s0-1.3-.687-1.3l-.686-1.3h-1.221c-.686,0-1.981,1.3-2.591,1.981-2.592,2.593-5.869,5.795-8.462,8.386-1.3,1.981-3.277,3.2-5.183,5.183a10.883,10.883,0,0,1-2.592,3.2,11.847,11.847,0,0,0-2.592,2.592c-1.906,1.373-3.279,3.279-5.184,4.574-1.906,1.981-3.887,2.592-5.87,4.573-1.219.61-2.592,1.906-4.5,3.2l-.686.61c-1.906,1.373-3.812,3.279-6.4,4.574a18.493,18.493,0,0,1-3.277,3.887h-.687a7.816,7.816,0,0,0-3.2,3.279l-1.982,1.219a2.5,2.5,0,0,1-.61,1.373c-1.982,1.906-3.887,3.2-5.183,4.5-.61.686-.61,1.3-1.3,1.3a2.3,2.3,0,0,0-.687,1.981c-.609,0-1.219.61-1.9.61a6.553,6.553,0,0,1-3.279,3.887c-.61,1.3-1.906,2.593-2.592,3.889a18.409,18.409,0,0,0-2.592,4.573l-1.22,1.22c-.686,1.371-.686,2.592-1.373,3.277a17.022,17.022,0,0,0-1.9,3.279.923.923,0,0,1-1.3,0,16.067,16.067,0,0,1-10.978,1.906c-1.372-1.3-3.964-1.3-4.574-3.279,0-1.906,1.3-2.592,1.983-3.812a5.512,5.512,0,0,0,1.906-1.981,12.681,12.681,0,0,1,1.3-1.981,13.072,13.072,0,0,0,2.592-3.2c1.3-1.3,2.592-1.983,2.592-3.2,1.983-.687,2.592-1.983,4.574-3.279a2.468,2.468,0,0,0,.61-1.3,4.8,4.8,0,0,0,2.592-2.592c2.592-1.983,5.794-3.887,8.385-6.48v-.686a12.017,12.017,0,0,0,3.279-2.592c2.592-1.22,3.888-3.2,5.183-4.5a22.394,22.394,0,0,1,3.887-3.279s.61-1.219,1.3-.609c.687-1.983,1.906-2.593,3.279-3.889.61-1.3,1.906-1.906,2.592-3.277,1.22-.61,1.22-1.22,1.22-1.22a7.073,7.073,0,0,1,1.981-.686c0-.686.61-1.3,1.3-1.906l.686-.686a.624.624,0,0,1,.61-.687l.61-.609h0a12.683,12.683,0,0,1,1.981-1.3c.61-1.3.61-1.906,1.3-2.593l1.906-1.9a.673.673,0,0,0,.687-.687l1.3-1.906c.609-.686.609-.686,1.3-1.371l.686-1.22c0-.686,1.22-1.373,1.22-2.592,1.371,0,1.371-.686,1.371-.686a4.534,4.534,0,0,1,1.906-2.593c1.3-2.592,2.592-3.277,3.279-4.5.609,0,1.219-1.371,2.592-1.371a9.109,9.109,0,0,1,1.906-2.592,2.46,2.46,0,0,1,1.3-1.906,8.719,8.719,0,0,1,3.2-3.279,29.6,29.6,0,0,1,3.964-4.5c0-1.3-.687-1.3-.687-3.277,0,0,.687-.61,1.3-1.22a2.494,2.494,0,0,0,.61-1.373c1.373-.609,1.983-1.9,3.279-3.2v-.609a1.407,1.407,0,0,0,1.3-1.373c.61,0,.61-.61,1.3-1.219h.686a2.072,2.072,0,0,1,1.22-.687,9.919,9.919,0,0,1,1.981,1.3c3.2-2.592,5.185,3.2,7.776,4.574,1.3,1.906,3.2,3.2,5.183,5.793a3.5,3.5,0,0,1-.61,1.981c.61.61,1.22-.686,1.906,0,0,.61.687.61,1.3,1.22.61.686.61,0,1.3,0,.687.686.687,1.373,1.3.686l.61,1.906c1.983,0,2.592.686,3.964,1.373h0a1.89,1.89,0,0,0,1.22.61h.686l.686.609h0c1.906,0,2.592,1.373,3.812,1.373Zm-14.255,7.776h.61c-.61-.687,0-1.983,0-1.983a.843.843,0,0,1-1.219,0C1093.538,159.2,1092.851,160.573,1094.147,160.573Zm-1.981-2.593a.671.671,0,0,1,.686-.686v-5.183C1092.165,154.017,1091.555,156,1092.165,157.98Zm-1.22-2.592c0,1.22-1.371,2.592-.686,3.2C1090.259,158.59,1091.555,156.608,1090.945,155.388Zm-.686-9.758a.624.624,0,0,0-.686-.61C1089.574,145.63,1090.945,145.63,1090.259,145.63Zm-.686,9.072c0,1.906-1.22,3.887-.61,5.87A21.576,21.576,0,0,0,1089.574,154.7Zm-4.5-16.238a2.45,2.45,0,0,0-1.906-1.219C1082.483,138.464,1084.389,139.837,1085.076,138.464Zm-3.279-2.592v.687c1.373,0,.686-.687.686-.687Zm-.61-1.906v.687C1081.8,134.654,1081.8,133.967,1081.187,133.967Zm-23.326,23.327c1.981-1.3,3.2-3.277,4.573-4.5a6.714,6.714,0,0,1,1.906-2.592c.686-.687,1.906-1.983,2.592-2.592v-.687h0a2.087,2.087,0,0,0,1.3-.686A73.611,73.611,0,0,0,1058.47,156S1057.251,156.608,1057.861,157.294Zm-5.793,7.089c2.592-1.219,5.183-2.592,7.775-3.811a27.686,27.686,0,0,1,4.5-5.185V154.7a3.057,3.057,0,0,0,.686-1.906,2.415,2.415,0,0,0,1.22-1.981c1.373-2.593,3.279-3.2,3.964-5.185-1.373,0-1.373.61-1.983,1.3a7.253,7.253,0,0,1-1.3,1.906s-.686.686-1.3,1.373a10.336,10.336,0,0,1-2.592,2.592c-1.3,1.906-3.2,3.2-4.574,5.183l-1.9,1.22h-1.3c-.609.686-1.3,1.981-1.982,2.592C1053.287,161.792,1051.381,163.164,1052.068,164.383Zm-27.9,30.493a11.644,11.644,0,0,1,3.2-2.592c3.279-1.983,5.87-4.574,9.147-7.166a.785.785,0,0,1,0-1.22c.61,0,.61-.686.61-.686,1.3,0,.61-.686,1.3-1.3,1.3-.61,1.906-1.983,3.279-2.592a16.445,16.445,0,0,0,2.592-3.889c-1.373,0-1.373,1.3-1.981,1.906-1.983,1.983-4.574,3.279-6.481,5.87-.686,0-.686,1.3-1.906,1.3-1.371,2.592-3.964,3.887-5.183,6.479-1.983.687-2.592,1.906-4.574,2.593Zm-19.439,30.492c-1.906,1.22-2.592,3.812-3.887,5.793v.61c1.3-.61,1.3-1.219,1.3-1.219a8.627,8.627,0,0,0,1.3-1.983C1004.04,226.589,1004.727,225.979,1004.727,225.369Zm7.775-13.645v-1.3a10.32,10.32,0,0,0,1.3-1.3v-.687l.61-.609.687-.61a2.4,2.4,0,0,1,.686-1.373,2.125,2.125,0,0,0,.61-1.219c.609-.687,1.3-1.373,1.3-1.373-1.906.686-5.185,1.373-6.48,3.964a2.645,2.645,0,0,1,1.983.61c-.687,1.3-1.373,2.592-1.983,3.887a9.222,9.222,0,0,1-2.592,2.592c-.61,1.906-1.982,2.592-2.592,4.5-1.3,1.373-1.983,3.964-3.2,5.185,0,0-.686,1.981-1.373,1.981-.609,1.981-1.219,2.592-1.906,4.574-.686,0-1.3,1.9-1.9,1.219a39.533,39.533,0,0,1,4.5-7.775c1.3-3.812,3.887-5.795,5.183-9a13.5,13.5,0,0,0,2.592-3.279c.687-1.3,1.3-2.592,1.906-3.887-1.906-.61-3.2,1.3-5.183,1.981A45.03,45.03,0,0,1,1000.84,215l.609,1.9c-.609.687-.609,1.906-1.219,2.593,0,1.9-1.373,1.9-1.373,3.887a5.024,5.024,0,0,1-3.2,3.2l-.61.686v.686a8.425,8.425,0,0,0-1.981,1.22,2.26,2.26,0,0,1-.61,1.373s-1.981,1.219-3.277,0c0-1.373.686-2.593,1.906-2.593.686,0,.686,1.22.686,1.22a6.148,6.148,0,0,0,3.277-2.592c.61-.61,1.22-1.906,2.593-2.592.609-2.593,1.9-4.5,2.592-7.776,0,0-1.373.686-1.373,1.373l-.61.609c0,.61-1.3,1.3-1.3,1.983-.686,0,0,.61-.686.61,0,.609-.61,1.3-.61,1.981-.61.61-1.3,1.22-1.981,1.906-1.22.686-1.22,2.592-2.592,2.592v-1.3h0c.686-.61,2.592-1.981,1.981-3.2-1.3,3.2-4.574,5.183-6.479,8.385,0,.61,1.3.61.686,1.3,1.906.687,2.592,1.3,3.812,1.3h0l1.371-.61a23.456,23.456,0,0,1,1.906-1.983c1.906-2.592,4.5-5.183,5.87-7.775a2,2,0,0,0,.61-1.3,17.463,17.463,0,0,1,1.3-1.3,2.03,2.03,0,0,1,.686-1.3c1.219-2.593,3.2-5.185,3.812-7.776a1.339,1.339,0,0,1,.686,1.906,35.959,35.959,0,0,1-2.592,3.964v.609a.624.624,0,0,0-.687.61s-.609,1.373-1.219,1.373v.61l-.686.609c-.687,1.373-1.906,3.279-2.593,4.574l-.686.61-.61.686c0,.686,0,.686-.609.686a2.073,2.073,0,0,0-.687,1.22v.686c-.686.687-1.906,1.3-2.592,2.592l-.686.687c2.592,0,3.964.61,5.869,0v-.687c1.3-5.183,4.5-8.461,7.776-11.054A36.246,36.246,0,0,1,1012.5,211.724Zm-.686,3.887c-1.219,0-1.219,1.3-1.219,1.3S1011.207,216.221,1011.817,215.611Zm62.206-61.594c0-.61-1.221,0-1.221-.61-.686,0,0-.61-.686-1.3-.687,1.3-1.3,2.592-2.592,3.277,0,1.22-1.3,1.22-1.3,3.2l-1.3,1.3c1.3-.686.687-1.906,1.906-1.3a.6.6,0,0,1-.61.61s-.609.686-1.3,1.373l-.686.609c-.61.61-1.22,1.983-1.906.61,0-1.219,1.3-1.219,2.592-1.219,0-1.373-1.3-.687-1.3-.687a8.218,8.218,0,0,1,1.983-2.592l1.906-1.906c0-.686.686-1.371,1.3-1.981l1.3-1.983c.686,0,1.3-1.219,0-1.219.686,1.219-.687,0-1.3.61a6.745,6.745,0,0,0-.61,1.981c-1.983.61-1.373,1.906-3.279,2.592.687-1.371.687-1.981,1.906-1.981,0-1.983,1.983-3.2,2.592-4.574-.609-.61,0-1.906,0-1.906-1.9.687-2.592,3.279-4.5,3.889,0,0-.686,1.981-1.3,1.981V154.7c-1.3,1.3-3.2,3.277-3.888,5.183a10.232,10.232,0,0,0-1.906,1.3c-.686.61-.686.61-1.373,1.3-1.9,1.3-4.5,1.906-6.4,2.593-.687.686-.687,1.3-1.373,1.3h-.61c-.61,1.3-1.981,2.592-2.591,3.887,1.981,0,4.574-1.906,5.793-.686,0,1.371-1.219,1.981-1.219,2.592-1.373,0-.687,1.373-1.983,1.981,0,.61,0,.61-.61,1.3a.672.672,0,0,0-.686.687c-.686,1.219-1.906,1.906-2.592,3.811-1.3.687-1.906,3.279-3.887,2.593.609-1.22,2.591-2.593,3.887-3.812.686-3.964,4.5-5.183,5.183-8.462-1.906,0-2.592,1.3-4.5,1.906,0,0-1.373.686-.686,1.373,0,0,.686-1.373,1.906,0l-.61.609c-.61,0,0,.61,0,.61h-.61c-.686,1.373-1.982,1.981-2.592,3.279-1.373,1.3-2.592,2.592-3.964,3.887a2.161,2.161,0,0,0-.61,1.3c-.609,0-.609.686-.609,1.3a19.53,19.53,0,0,0-2.593,1.981,2.256,2.256,0,0,1-1.371.61c-1.906,1.983-2.592,2.592-3.812,3.2-3.277,2.592-5.87,4.574-9.148,7.166-1.906,1.3-4.5,2.592-5.793,4.574,1.3,0,2.592-1.373,3.2,0a16.563,16.563,0,0,1-3.2,3.811,3.085,3.085,0,0,1-1.3,2.592c-.687,1.373-1.3,2.593-1.906,3.964l-1.373,1.22c1.981-1.22,3.964-4.5,5.87-6.4,1.3-2.592,3.887-5.183,5.869-7.166a11.526,11.526,0,0,1,2.593-3.2h.609c.61-.686,1.3-1.371,1.983-1.371a10.851,10.851,0,0,1,1.219-1.906,2.126,2.126,0,0,1,1.373-.687l1.906-1.906c1.906-1.3,2.591-2.592,3.887-3.277,0,0,.61-1.22,1.3-.61a16.467,16.467,0,0,1-3.277,3.887c-2.592,1.906-5.185,4.5-7.776,6.48a15.742,15.742,0,0,1-3.812,3.2c-2.592,3.277-5.183,5.87-7.165,9.758.609,0,1.3-.61,1.981-1.3v-.687c.61-.609.61-.609,1.22-.609v-1.3a25.5,25.5,0,0,0,2.592-1.906l1.371-1.373.61-.61a.6.6,0,0,1,.61-.609,16.757,16.757,0,0,0,3.279-3.964,2.289,2.289,0,0,0,1.9-1.22c3.279-1.981,4.574-4.573,7.166-5.87a14.329,14.329,0,0,1,4.574-4.5l.61.61.609-.61c.687-.686,1.373-1.371,1.983-1.371h.609a1.8,1.8,0,0,0,.687-1.22h1.3l.61-1.981c1.981,0,1.981-1.3,3.277-1.983v-.609c1.3-1.3,2.592-3.2,3.887-4.574,0-.61.61-1.219,1.3-1.906.686-1.3,1.3-2.592,1.3-2.592a9.424,9.424,0,0,1,1.981-3.887,2.161,2.161,0,0,0,.61-1.3l.61-.687c0-.609.686-1.906.686-1.219.686,1.219-.686,1.219-.686,2.592a2.13,2.13,0,0,0-.61,1.219v.687a30.134,30.134,0,0,0-1.983,3.887c-.609.61-.609,1.983-1.219,2.592,0,.61-.686.61-.686.61l1.9-1.219a2.693,2.693,0,0,1,.687-1.983c.686-1.3,1.3-2.592,1.3-2.592.61-1.3,1.3-1.3,1.3-1.3a2.387,2.387,0,0,0,.686-1.3s.61-1.3,1.221-1.3c0,0,.686-.687,1.371-1.3a2.131,2.131,0,0,1,1.22-.61c.686-.687,1.373-2.592,2.592-1.983a2.05,2.05,0,0,1-1.906,1.983l-1.906,1.906a11.471,11.471,0,0,0-3.277,4.5c.686,0,.686-1.22,1.906-1.22a2.357,2.357,0,0,1,1.371-1.981l.61-.61c.61,0,.61,0,.61-.686a2.126,2.126,0,0,0,1.373-.687v-.609h.609a2,2,0,0,0,.61-1.3,2.38,2.38,0,0,0,.687-1.3h1.3c0-1.981,1.3-1.981,1.3-3.2,0,0-.687,1.22-.687.61C1072.117,156.608,1074.023,156,1074.023,154.017Zm6.556-11.588s0-1.981-.687-2.592a7.533,7.533,0,0,1-.686,3.812c0,.686,0,1.981-.61,1.981,0-1.3.61-3.2,0-4.573a2.477,2.477,0,0,1-.61,1.981c-.686-.61.61-1.981,0-3.2,0,0,0-1.373-.686-1.373a10.473,10.473,0,0,1-.686,4.574,1.51,1.51,0,0,1-.61-1.981l-.61.686a.874.874,0,0,0,0,1.3v1.981a2.256,2.256,0,0,1-1.371.61,2.092,2.092,0,0,1,.686,1.3c0,2.592,1.906,3.279,3.277,5.185h.61s.61-3.889.61-5.185h0A8.718,8.718,0,0,1,1080.578,142.429Zm5.183,13.57a93.074,93.074,0,0,0,1.219-12.96c-.609-.61-1.219-.61-1.9-1.3-.687,1.3,0,3.277-.687,4.5,0,.686,0,1.373-.609,1.373,0-1.983.609-4.574.609-7.166-1.906.61,0,3.887-1.906,3.887-.686-.686.687-2.592,0-3.887-.686,1.981,0,4.573-1.3,5.793,0-1.906.61-3.812.61-6.4v-.686c-1.219,3.277-1.219,6.479-1.906,9.681,0,0,1.3,0,.687.686.609,1.906-.687,3.889,0,5.87.609-1.981,0-4.573,1.219-5.87v-1.9c0-1.373,0-2.593,1.373-2.593,0,1.906-.687,3.812-.687,5.795V152.8c0,1.906-1.3,4.5.687,5.793,0-1.3,0-3.2.61-3.887.609,1.906-1.3,4.5,0,6.479a8.691,8.691,0,0,0,.609-3.887,2.969,2.969,0,0,0,0-2.592C1085.762,154.017,1085.076,156.608,1085.762,156Zm.61,3.887v1.3h0Zm.609-1.906s0,1.906.687,2.593c0-1.373.686-1.983.686-3.279a23.08,23.08,0,0,0,.61-6.479c-.61,1.981-.61,4.573-1.3,5.793-1.3,0-.687-2.592-.687-2.592a17.623,17.623,0,0,0,1.373-6.4l.61-.687a3.317,3.317,0,0,1-.61-1.906c-.686-.686-.686.61-.686.61,0,5.793-1.3,10.368-1.3,14.255C1086.372,159.886,1086.372,157.98,1086.981,157.98Zm19.515-4.573c-1.371,0-1.982-.61-3.277-.61a6.724,6.724,0,0,0-1.906,2.592,2.483,2.483,0,0,1-1.981,1.22c0,1.371-1.3,1.981-2.593,1.981,0,0,.61-1.3-.609-.61a2.132,2.132,0,0,1,.609,1.22l-1.3,1.981a13.622,13.622,0,0,1-1.9,1.3l-2.593,1.3c-1.371,1.3-2.592,1.981-3.964,3.2a9.157,9.157,0,0,0,1.373,3.964c1.906,0,2.592-1.371,3.812-1.371,0-.61,0-1.22.686-1.22h.687a30.52,30.52,0,0,1,5.183-3.964c1.219-1.906,3.2-3.811,5.183-6.4a.672.672,0,0,0-.686-.686c.686-1.3,1.3-1.3,1.906-.686C1105.125,155.388,1106.5,154.7,1106.5,153.407Zm-71.962,28.511c0-.61-.61,0-.61-.61l-2.592-1.981a16.446,16.446,0,0,0-2.592-3.889c-.686-1.9-1.983-3.277-3.279-5.183-.686-1.3-1.3-3.279-2.592-4.5.686-.686.686,0,.686,0a4.821,4.821,0,0,0,1.906.61c1.3.609,1.906,1.3,3.279,1.3,0-1.906-2.592-1.3-3.279-3.279a.872.872,0,0,1-1.3,0,7.037,7.037,0,0,0-2.592-.609c-1.3-.61-1.981-1.983-3.2-2.593,0,1.3.61,1.3,1.22,1.983l1.981,1.906c1.3,2.592,2.592,5.183,4.574,7.089,1.219,3.964,3.811,6.556,6.4,9.758C1032.552,181.917,1033.924,182.527,1034.534,181.917Zm1.981-.61-.686.61h0c-.686-.61-1.3-1.983-1.906-1.983-.686-1.9-1.981-2.592-2.592-3.811a.672.672,0,0,0-.686-.687,2.381,2.381,0,0,1-.687-1.3c-1.219-.609-.609-1.981-1.9-1.981,0-.61-1.3-1.22-.687-2.592,1.373-1.22,3.279.686,5.185.686-.61-1.3-1.906-2.592-2.593-3.887h-.609a2.161,2.161,0,0,1-.61-1.3,21.045,21.045,0,0,1-6.556-2.593c-.61-.686-1.22-.686-1.906-1.3a2.46,2.46,0,0,0-1.906-1.3c-.686-1.906-2.592-3.887-3.964-5.183v-1.3c-.61-.61-1.219-1.3-1.219-1.3-1.983-1.906-2.592-4.5-4.574-5.185,0,0,1.3,1.3,0,1.906.61,1.373,2.592,2.592,2.592,4.574,1.3,0,1.3.61,1.983,1.981-1.983-.686-1.373-1.981-2.592-2.592a2.127,2.127,0,0,0-1.372-.686c-.61-1.906-1.22-.687-1.22-1.906-1.371,0-.686,1.219,0,1.219l1.22,1.983a24.369,24.369,0,0,1,1.981,1.981l1.3,1.906c.687.686,1.3,1.3,1.906,1.906a1.247,1.247,0,0,0-1.219,1.373c1.219,0,2.592,0,2.592,1.219-.686,1.373-1.373,0-1.983-.61l-.609-.609a2.126,2.126,0,0,0-1.373-.687,2.468,2.468,0,0,1-.61-1.3c1.3-.61,1.3.61,1.983,1.3l-1.373-1.3c0-1.981-1.219-1.981-1.219-3.2a6.145,6.145,0,0,1-2.593-3.277c-.686.686,0,1.3-.686,1.3,0,.61-1.3,0-1.3.61.61,1.981,2.592,2.592,2.592,4.573v-.61c0,1.22.61,1.22.61,2.593a2.5,2.5,0,0,0,1.372.609v.61l1.219,1.983h.686v.609l.687.687c.609.686.609.686,1.219.686v.61a4.634,4.634,0,0,1,2.592,1.981s.687,1.22,1.372,1.22a12.265,12.265,0,0,0-3.277-4.5l-1.906-1.906a2.114,2.114,0,0,1-1.983-1.983c1.3-.609,1.983,1.3,2.592,1.983a2.475,2.475,0,0,1,1.3.61,2.148,2.148,0,0,0,1.3.609,2.263,2.263,0,0,1,.609,1.373c.687,1.219,1.372,1.219,1.372,1.219l1.22,1.373a12.122,12.122,0,0,1,.686,3.2c.686,0,1.3.61,1.3,1.983.61.609,1.3,1.219,1.981,1.9a2.382,2.382,0,0,1-.686-1.3,9.853,9.853,0,0,0-1.3-2.592c-.61-1.3-1.3-3.2-1.981-3.887v-.687a2.13,2.13,0,0,0-.61-1.219c0-1.373-1.3-1.373-.61-2.592,0-.687.61.61.61,1.219.61,0,.61.687.61.687a.672.672,0,0,0,.686.686c.686,1.219,1.3,2.592,1.906,3.812a28.8,28.8,0,0,0,1.371,3.277c.61.687,1.22,1.3,1.22,1.906,1.373,1.373,2.592,3.279,3.964,4.574v.609c1.219.687,1.219,1.983,3.2,1.983l.61,1.981h.686l-.686.61a12.535,12.535,0,0,1-3.812-2.592,53.872,53.872,0,0,0-5.185-4.574,5.513,5.513,0,0,0-1.981-1.906c-1.981-1.9-2.592-2.592-3.2-3.887-1.981-1.981-3.277-3.2-5.183-5.183-2.592-2.592-5.87-5.793-8.462-8.386-.687-.686-1.906-1.981-1.906-1.981h-1.982c-.61,0,0,1.3-.61,1.3l-.687.686v2.593c-.686.609-.686-.687-1.3,0a45.484,45.484,0,0,0-3.2,6.4c-.686,1.373-1.371,2.593-1.371,2.593-1.22,1.981-.61,3.964-2.592,3.964a1.031,1.031,0,0,1,0-1.373,52.649,52.649,0,0,1-9-5.793c-2.592-2.592-5.183-4.574-6.556-7.776h-.609l-.61-.61c0-1.371-.686-1.371-1.373-1.981a2.146,2.146,0,0,0-.61-1.3,2,2,0,0,0-.609-1.3v-.61h.609c1.3,0,1.983-1.373,3.889-1.373h0l.686-.609c-.686.609,0,.609,0,.609l.61-.609a2.146,2.146,0,0,0,1.3-.61h0c1.3-.687,1.906-1.373,3.887-1.373l.61-1.906c.686.687,1.373,0,1.373-.686.609,0,.609.686,1.219,0,.687-.61,1.373-.61,1.983-1.22a.923.923,0,0,0,1.3,0,2.122,2.122,0,0,1-.687-1.371c1.983-3.2,3.964-4.5,5.87-6.4,1.906-1.373,3.887-7.166,7.089-4.574.687-.609,1.373-1.3,1.983-1.3a2.087,2.087,0,0,0,1.3.687h.686c.61.609.61,1.219,1.22,1.219a1.476,1.476,0,0,0,1.371,1.373v.609c1.22,1.3,1.906,2.593,3.2,3.2l.61.687c.686,1.3,1.373,1.3,1.373,1.3.609,2.592-.687,2.592-.687,3.887,1.3,1.3,3.279,2.592,4.5,4.5a9.226,9.226,0,0,1,1.983,2.592c1.3.687,1.981,1.373,1.981,2.593,1.22.686,1.906,1.371,1.906,2.592a2.33,2.33,0,0,1,1.906,1.371c1.373,1.22,2.592,1.906,3.279,3.812a5.694,5.694,0,0,1,2.592,2.592,2.128,2.128,0,0,1,.686,1.373c.61,1.219,1.906,1.906,2.592,2.592,0,0,0,1.22.61,1.22a2.256,2.256,0,0,0,.61,1.371l1.371,1.906c.61,0,.61.687.61.687l1.983,1.9a2.151,2.151,0,0,1,.609,1.3l-.609.61h-1.373c-.61-.61-.61-1.906-1.906-1.906a2.307,2.307,0,0,0,1.3,1.906v1.983a2,2,0,0,1-.61-1.3c-1.371-1.3-2.592-1.906-3.277-3.279h0v-.61s-1.3,0-.686-.609c.686-1.373.686.609,1.981,0,.61-.687-1.3-.687-1.3-.687-1.3-1.3-2.592-2.592-4.5-2.592,1.219,3.279,4.5,4.5,5.793,8.462A8.682,8.682,0,0,1,1036.515,181.307Zm-37.658-46.653a.672.672,0,0,1,.686-.687C998.857,133.967,998.247,134.654,998.857,134.654Zm-1.219,1.906c.609,0,.609,0,1.219-.687a2.13,2.13,0,0,0-1.219-.61Zm-2.593,1.9c.61,1.373,2.593,0,1.906-1.219C995.655,137.245,995.655,137.855,995.045,138.464Zm-3.963,22.108c.686-1.983,0-3.964-.61-5.87C990.472,156,991.082,158.59,991.082,160.573Zm-1.22-14.942a.6.6,0,0,0,.61-.61A.6.6,0,0,0,989.862,145.63Zm0,12.96c.61-.61,0-1.981-.686-3.2C988.489,156.608,989.176,158.59,989.862,158.59ZM987.27,154.7v2.592c.61,0,.61.686.61.686.609-1.981,0-3.963-.61-5.869Zm-1.983,5.87h1.3V158.59s-.687.61-.687,0A3.506,3.506,0,0,1,985.287,160.573Zm8.386,6.4c-1.22-1.219-2.592-1.9-3.812-3.2,0,0-1.981-.61-1.981-1.3-1.3,0-1.983-.686-3.2-1.3l-1.373-1.981c0-.61,1.373-.61,1.373-.61-1.373-1.3-1.373,0-1.373,0-1.22,0-2.592-.61-2.592-1.981-1.22,0-1.22-.61-1.22-.61a21.615,21.615,0,0,0-1.981-2.592c-1.983-.61-2.592,0-3.887,0,0,1.3,1.3,1.981,1.3,3.2a1.3,1.3,0,0,1,1.981,0,2.394,2.394,0,0,0-.686,1.371,48.413,48.413,0,0,0,5.869,6.4,29.753,29.753,0,0,1,4.5,3.964h1.3a2.132,2.132,0,0,1,.609,1.22c.687,0,1.372,1.371,3.279,1.371C992.453,169.568,993.064,168.348,993.674,166.975Zm0-7.089c.686-3.887-1.22-8.462-1.22-13.645,0,0,0-1.906-1.371-1.906a1.89,1.89,0,0,1,0,2.592.672.672,0,0,1,.686.687c0,2.592.686,4.5.686,6.4.61,0,1.22,2.592,0,2.592-.686-1.22-.686-3.812-1.371-5.793a20.642,20.642,0,0,0,.686,6.479c.686,1.3.686,1.906,1.3,3.279.61-.687-.61-1.983,0-2.593C994.359,157.98,993.674,159.2,993.674,159.886Zm.686,1.3s0-1.3-.686-1.3v1.3Zm5.87-12.349c-.687-3.2-.687-6.4-1.373-9.681v.686c-.61,2.592.686,4.5,0,6.4-1.219-1.22-.61-3.812-1.219-5.793-.687,1.3.609,3.2,0,3.887-1.373,0,0-3.277-1.983-3.887a30.949,30.949,0,0,1,.61,7.166,2.5,2.5,0,0,1-.61-1.373c-.61-1.22,0-3.2-.61-4.5a9.853,9.853,0,0,0-1.981,1.3,83,83,0,0,0,1.3,12.96c.686.61,0-1.981,0-1.981,1.3.686.686,1.981,1.3,3.277,0,1.3.61,2.592.61,3.887,1.373-1.981-.61-4.573,0-6.479,1.373.686.686,2.592.686,3.887,1.906-1.3.687-3.887.687-5.793a2.5,2.5,0,0,1,.609-1.373c-.609-2.592-1.3-4.5-1.3-6.4,1.3,0,1.3,1.22,1.3,1.906v2.592c1.3,1.3,1.3,3.889,1.3,5.87.687-1.981-.686-3.964,0-5.87A.672.672,0,0,1,1000.23,148.832Zm5.793-2.592a2.13,2.13,0,0,1-.61-1.22v-1.981c0-.61-.686-.61-.686-.61-.687-.686,0-1.981-.687-1.981,0,0,.687,1.981-.609,2.592,0-1.3-.61-3.2-.61-4.574l-.686,1.373c-.687,1.22.686,2.592,0,3.2a2.3,2.3,0,0,1-.687-1.981c-.609,1.371.687,3.277,0,4.573a6.753,6.753,0,0,1-.609-1.981c-.61-1.22,0-2.592-.61-3.812-.687.61,0,1.906,0,1.906,0,1.906.61,3.277.61,5.183h0a24.268,24.268,0,0,0,.609,3.889l.687,1.3c1.3-1.906,3.277-2.593,3.277-5.185A.624.624,0,0,1,1006.023,146.241Zm7.166.686h0v.687c1.219.609,1.906,1.9,2.592,2.592a8.716,8.716,0,0,1,1.906,2.592c1.906,1.22,3.277,3.2,4.5,4.5,1.371-.686-.61-1.3-.61-1.3-2.592-3.887-6.479-7.166-9.072-10.368C1012.5,145.63,1012.5,146.926,1013.189,146.926Zm13.568,14.866a10.226,10.226,0,0,1-1.3-1.906l-1.906-.686a3.313,3.313,0,0,1-1.981-1.22c-1.3-1.981-3.2-3.277-4.574-5.183-1.219-.686-1.9-1.981-2.592-2.592l-1.219-1.373a1.8,1.8,0,0,1-.687-1.219c-1.3-1.373-1.3-1.983-2.592-1.983.687,1.983,2.592,2.592,3.279,5.185,0,0,1.219,1.3,1.219,1.981a5.425,5.425,0,0,0,1.983,1.906v.686c1.3,1.906,2.592,3.2,3.888,5.185,2.592,1.219,5.183,2.592,7.776,3.811C1028.74,163.164,1027.368,162.477,1026.758,161.792Zm68,69.981c-.61,1.983-3.2,1.983-4.5,3.279-3.279.686-7.776,0-10.368-.687l-1.906-1.219a16.667,16.667,0,0,0-1.981-3.279,8.673,8.673,0,0,0-1.3-2.592,10.154,10.154,0,0,0-1.3-1.906,14.63,14.63,0,0,0-2.592-4.573c-.61-1.3-1.983-2.593-2.593-3.889a6.458,6.458,0,0,1-3.2-3.887.624.624,0,0,1-.686-.61c-1.3-.686-1.3-1.371-1.3-1.981-1.3,0-1.3-.61-1.981-1.3-1.22-1.3-3.2-2.592-4.5-4.5-.687,0-.687-.687-1.3-1.373a3.307,3.307,0,0,0-1.982-1.219,5.875,5.875,0,0,0-2.592-3.279h-1.22a16.471,16.471,0,0,1-3.277-3.887c-2.592-1.3-4.5-3.2-6.48-4.574v-.61a.6.6,0,0,0,.61-.609h1.373c0,.609.61,1.219,1.219,1.9,2.592,1.3,3.964,3.889,6.556,5.185.61.686,1.22,1.906,2.593,1.906.609,1.371,2.592,2.592,3.811,3.964v.609l.687.61c.686.686.686.686,1.3,1.373.609.61,1.981,1.219,2.592,1.906v.686s1.3.61,1.3,1.219a.672.672,0,0,0,.686.687,1.326,1.326,0,0,0,1.221,1.3c-1.906-3.887-4.5-6.48-7.089-9.758a15.992,15.992,0,0,1-3.889-3.2c-2.592-1.981-5.183-4.574-7.775-6.48a4.392,4.392,0,0,0-1.983-1.9c-.609-1.373,0-1.373,0-1.373h0a7.989,7.989,0,0,1,3.279,3.277s1.906.687,1.906,1.3c.686.609,1.371.609,1.981,1.3l1.983,1.906,1.219,1.371h.686a13.072,13.072,0,0,1,2.593,3.2,36.294,36.294,0,0,1,6.479,7.166c1.982,1.906,3.2,5.183,5.183,7.089l-.609-1.906a11.779,11.779,0,0,1-2.593-3.964,3.134,3.134,0,0,1-1.371-2.592,8.691,8.691,0,0,1-2.592-3.811c0-1.373,1.371,0,2.592,0-1.221-1.983-3.812-3.279-5.793-4.574-2.593-2.592-5.793-4.574-9.072-7.166a10.586,10.586,0,0,1-3.279-2.592l-1.219-1.22.61-.686a73.06,73.06,0,0,0,7.775,6.48,9.778,9.778,0,0,1,3.2,2.592v-.61c-1.906-1.373-2.592-2.592-3.811-3.279-1.373-1.9-3.279-3.277-4.574-5.183h0s1.3,0,1.3-.686c1.3,1.371,1.906,2.592,3.279,3.277.609,1.3,1.9,1.906,2.592,3.889,1.219-.61,1.219.609,1.906.609,1.3,1.373,1.9,1.983,3.277,3.279,1.906,1.3,3.2,3.277,5.183,4.5.61.686,1.906,1.981,2.593,2.592a1.8,1.8,0,0,1,1.219.686c1.983,2.593,5.185,4.5,7.776,6.48a5.348,5.348,0,0,0,2.592,2.592c.686.61.686.61,1.372,1.3,1.219,1.3,1.9,2.592,3.811,3.279.687,1.219,1.983,1.906,2.592,3.2a15.123,15.123,0,0,0,2.593,3.2,2.123,2.123,0,0,1,.686,1.371l2.592,2.592C1093.538,229.181,1094.757,229.867,1094.757,231.773Zm-25.919-16.161c0,.61.687.61.687.61Zm10.368,15.551c-1.221-1.981-1.906-4.573-3.812-5.793a6.535,6.535,0,0,1,.61,2.592,4.924,4.924,0,0,1,1.3,2.593,1.325,1.325,0,0,1,1.3,1.219C1079.206,231.773,1079.206,231.773,1079.206,231.162Zm14.332,0c-1.983-3.2-4.574-5.183-6.557-8.385-.609,1.22,1.373,2.592,1.373,2.592l.61.61v1.3c-1.3,0-1.3-1.906-2.592-2.592l-1.3-1.906c-.687-.686-1.3-1.373-1.3-1.981l-.61-.61c0-.686-.687-1.373-1.373-1.983a.6.6,0,0,0-.61-.609,1.405,1.405,0,0,0-1.3-1.373c.687,3.279,1.906,5.183,2.591,7.776,1.3.686,1.906,1.981,2.593,2.592,1.3,1.371,1.9,1.981,2.592,2.592,1.3,0,.686-1.22.686-1.22a2.36,2.36,0,0,1,2.592,2.593,2.268,2.268,0,0,1-3.277,0,2.393,2.393,0,0,0-.687-1.373,1.885,1.885,0,0,0-1.219-.61c-.686-.61-.686-.61-.686-1.3h0s-1.3-1.906-2.593-1.906c0-1.371-.686-1.981-1.3-1.981,0-1.983-.609-1.983-.609-3.887a2.54,2.54,0,0,1-1.372-2.593.924.924,0,0,1,0-1.3c-1.906-1.981-3.812-3.887-5.794-5.793-1.3-.686-3.2-2.592-5.185-1.981.61,1.3,1.3,2.592,1.983,3.887.61,1.3,1.906,1.906,2.592,3.279,1.221,3.2,3.812,5.183,5.183,9a23.721,23.721,0,0,1,4.5,7.775l-1.3-1.219c-1.3-1.983-1.981-2.593-2.592-4.574L1077.3,224c-1.3-1.22-1.906-3.812-3.277-5.185-.61-1.906-1.906-2.592-2.593-4.5a11.9,11.9,0,0,1-2.592-2.592,9.6,9.6,0,0,1-1.219-3.887,2.124,2.124,0,0,1,1.219-.61c-1.219-2.592-3.812-3.279-5.793-4.574l.61,1.983.686.61a6.232,6.232,0,0,1,.686,1.981l.61.61.61.609v.687a2.125,2.125,0,0,0,1.373.686l.609,1.906a83.947,83.947,0,0,1,4.574,9.681c3.2,2.593,6.4,5.87,7.089,11.054.687,0,.687,0,.687.687,1.9.61,3.811,0,5.794,0,.609,0-.61-.687-.61-.687-.686-1.3-1.981-1.9-2.592-2.592v-.686c0-.61-.687-.61-.687-.61a2.03,2.03,0,0,0-.686-1.3h0s-.61-.686-1.219-1.3c-.687-1.3-1.983-3.2-2.593-4.574l-.686-.609v-.61a2.382,2.382,0,0,0-1.3-.686l-.61-1.3v-.609a12.851,12.851,0,0,1-1.982-3.279s-1.3-1.906,0-2.592c.61,2.592,2.592,5.183,3.887,7.776l.686.686c.61,1.219,1.221,1.219,1.221,1.219l.686,1.983c1.3,2.592,3.889,5.183,5.87,7.775.61.61,1.219,1.3,1.906,1.983h1.3v.61c1.3,0,1.981-.61,3.887-1.3C1092.165,231.773,1093.538,231.773,1093.538,231.162Z" transform="translate(-930.516 -131.375)" fill="#fff" fill-rule="evenodd" opacity="0.18"/>
  <path id="Path_268" data-name="Path 268" d="M1006.218,206.2l.61-1.3.61-.686a.671.671,0,0,0,.686.686v.687s0,1.219-.686,1.219a8.4,8.4,0,0,1-1.22,1.981l-1.981.61a7.8,7.8,0,0,1-3.888.687,12.955,12.955,0,0,1-5.185-1.3c-1.906-.609-3.277-1.3-3.887-2.592-1.3-.609-1.983-1.981-3.2-3.887-.686-1.3-1.373-2.592-1.373-2.592-.61-3.279-1.219-4.5-1.219-5.87v-4.5c0-1.906,0-3.887.609-5.183,0-1.906.61-3.279.61-4.5.687-1.373,1.373-2.593,1.983-3.964h-1.3c-1.3,0-2.593.686-3.889.686-1.3.686-2.592.686-3.888,1.3l-2.592,2.592s-1.906,1.983-3.279,3.2c-1.219,1.373-3.2,1.983-4.5,3.279-1.906,1.3-3.277,2.592-5.183,3.277a26.541,26.541,0,0,1-5.87,2.593,12.375,12.375,0,0,1-5.183,1.219,13.325,13.325,0,0,1-5.185-1.219,6.645,6.645,0,0,1-3.811-3.279,9.472,9.472,0,0,1-2.592-4.5,18.7,18.7,0,0,1-1.372-5.87,18.689,18.689,0,0,1,1.372-5.869c1.219-1.906,2.592-3.812,3.811-5.795a53.873,53.873,0,0,1,5.185-4.573,29.875,29.875,0,0,1,5.869-3.2,29.549,29.549,0,0,1,7.091-2.592c1.981,0,3.963-.61,5.869-.61a9.517,9.517,0,0,1,4.5,1.219,15.846,15.846,0,0,1,3.279,2.593l1.3,2.592a11.214,11.214,0,0,1,.61,2.592v1.373h-1.22c-.686-.687-1.373-1.983-1.982-2.592-.61-.687-1.983-.687-3.2-1.373-1.373-.61-2.592-.61-5.185-.61a26.185,26.185,0,0,0-6.556.61c-1.9.686-3.811,1.373-5.793,1.981-1.981,1.3-3.888,1.983-5.183,3.2a19.935,19.935,0,0,1-3.2,2.592c-1.983,2.593-3.279,3.964-3.279,5.185a10.432,10.432,0,0,0-1.3,3.277,14.429,14.429,0,0,0,1.3,5.185l1.3,1.3a8.583,8.583,0,0,0,1.3,1.981,14.511,14.511,0,0,0,2.592.61,13.458,13.458,0,0,0,3.277.61,20.189,20.189,0,0,0,5.793-1.22,25.948,25.948,0,0,0,5.795-2.592,13.742,13.742,0,0,0,5.183-3.277,10.386,10.386,0,0,0,3.964-2.593c-.687,0-1.983.687-3.279.687h-2.592a5.7,5.7,0,0,1-4.5,0c-1.373-.687-2.592-1.373-2.592-1.373-1.983-1.22-2.592-1.906-2.592-3.2-.687-.61-.687-1.3-.687-2.592v-1.3l.687.686c.609.61.609,1.22,1.906,1.22a6.16,6.16,0,0,0,2.592.686,21.1,21.1,0,0,0,5.869.686h5.185c1.219,0,2.592-.686,3.811-.686a5.572,5.572,0,0,0,3.279-.686h0a74.307,74.307,0,0,0,7.776-7.776c1.3-1.219,1.9-2.592,3.277-3.2.61-1.3,1.906-1.981,2.592-3.2a13.4,13.4,0,0,0,1.906-2.592,2.4,2.4,0,0,1,.686-1.373c0-.609,0-.609.61,0a10.272,10.272,0,0,1,1.983,1.373l1.906,1.906a6.763,6.763,0,0,1,.686,3.277v1.906c-.686.687-.686,1.3-1.373,1.906-.61,1.373-.61,1.981-1.219,3.279-.687.686-.687,1.3-1.373,1.9l5.183-.609h1.983v-.61h1.3v.61a2.387,2.387,0,0,1-.686,1.3c-1.22,0-1.906.686-3.2,1.3h-1.983l-1.906.61c-.686,0-1.3.686-1.906.686l-.686,1.3a25.584,25.584,0,0,0-2.592,5.793,5.816,5.816,0,0,0-.686,3.279,10.017,10.017,0,0,1-1.22,2.592,5.81,5.81,0,0,1-.686,3.277v1.906a26.889,26.889,0,0,0,1.3,8.462,13.3,13.3,0,0,0,2.592,5.185c.61,1.219,1.982,1.9,3.2,2.592a10.4,10.4,0,0,0,1.981,1.219h1.983a2.478,2.478,0,0,0,1.906-.61l1.3-.609,1.981-.687Zm-16.237-34.3s.686-.686,1.3-1.373c0-.609.61-1.219.61-1.9.686-.687.686-1.906,1.371-2.593a2.146,2.146,0,0,0,.61-1.3,42.388,42.388,0,0,1,3.887-5.793L984.111,172.5l3.964-.61Z" transform="translate(-940.049 -124.41)" fill="#fff"/>
  <path id="Path_269" data-name="Path 269" d="M999.711,194.11c.686,0,1.372-.686,2.592-1.3.687-1.3,1.983-1.981,3.279-3.2,1.3-1.371,2.592-3.277,3.888-4.573,1.3-1.983,2.592-3.2,3.887-5.185l.687-.609h.609v.609a2.153,2.153,0,0,1-.609,1.3,1.888,1.888,0,0,1-.687,1.3c-.686,1.3-1.9,1.981-2.592,3.2a16.716,16.716,0,0,1-3.277,3.963c-.61,1.22-1.906,1.906-3.2,3.2a11.677,11.677,0,0,1-3.2,2.593,10.126,10.126,0,0,1-2.592,1.3,2.4,2.4,0,0,0-1.373-.687l-1.22-.609c-.686-.61-.686-1.3-1.371-1.983v-3.2c-1.22,1.3-1.906,2.592-2.592,3.2-.61.686-1.906,1.373-2.593,1.983l-1.9,1.3a.673.673,0,0,1-.687-.687c-1.219,0-1.906-.609-2.592-.609-.61-.61-.61-1.3-1.22-1.983v-2.592a8.356,8.356,0,0,1,.61-3.812c.61-1.371,1.3-2.592,1.983-3.964,1.219-1.219,1.906-2.592,3.2-3.811a18.543,18.543,0,0,0,3.887-3.279,11.629,11.629,0,0,1,3.277-1.906,2.938,2.938,0,0,1,1.906-.686h2.592s1.3.686,1.3,1.3l1.3,1.3c1.9-3.277,3.277-5.87,4.5-8.462,1.371-1.219,1.371-2.592,1.982-3.2a11.042,11.042,0,0,1,1.983-3.2c.609-1.371.609-1.981,1.219-2.592v-1.981l.686-.61a2.318,2.318,0,0,1,1.906.61s.687.609,1.373,1.3c0,1.3.61,1.906.61,3.887,0,.61-.61,1.3-1.3,2.592s-1.3,3.2-1.906,4.574c-1.373,1.906-1.983,3.2-3.279,5.183a26.081,26.081,0,0,0-3.277,5.793c-1.22,1.983-2.593,3.889-3.2,5.185a36.043,36.043,0,0,1-3.2,4.573c-.687,1.22-.687,2.593-1.372,3.2Zm-11.587,0c.61,0,1.219-.686,2.592-1.3a17.255,17.255,0,0,0,2.592-3.2c1.22-1.371,2.592-2.592,3.812-3.963.686-1.22,1.982-3.2,2.592-4.5a7.215,7.215,0,0,1,1.372-1.906c.61-1.983.61-1.983,0-1.983a5.3,5.3,0,0,0-1.983.61,7.414,7.414,0,0,1-2.592,1.981,10.58,10.58,0,0,1-1.981,2.593c-1.906,1.981-2.592,3.2-3.812,4.573-.686,1.22-1.373,2.592-1.982,3.812a3.5,3.5,0,0,0-.61,1.981v1.3Z" transform="translate(-927.138 -123.987)" fill="#fff"/>
  <path id="Path_270" data-name="Path 270" d="M1009.265,171.894l.687-.686c.686,0,1.3.686,1.9.686a9.849,9.849,0,0,1,1.983,1.3,4.084,4.084,0,0,1,.61,2.592,5.885,5.885,0,0,1-.61,3.2,19.435,19.435,0,0,0-1.983,3.279,17,17,0,0,0-1.9,3.277,11.891,11.891,0,0,1-1.3,1.906c-1.3,1.906-1.3,2.592-1.3,2.592l-.686,1.3a7.865,7.865,0,0,0,2.592-1.3c1.373-.686,1.983-1.906,3.279-3.277a26.252,26.252,0,0,0,3.888-4.5c1.3-1.3,2.592-3.279,3.887-4.5a22,22,0,0,0,2.593-5.185l1.3-2.592c0-2.592,0-3.964-.61-4.574a24.368,24.368,0,0,1-1.983-1.981c-.609-.61-1.3-1.219-1.3-1.219h-2.592v-.687h0l.686-.686a5.569,5.569,0,0,1,3.2.686c1.3.687,1.983,1.3,3.2,1.906a16.81,16.81,0,0,1,2.593,3.279c1.371,1.3,1.371,2.592,1.371,4.5a6.74,6.74,0,0,1-1.371,4.573c-.61,1.3-1.906,2.592-3.2,4.574a31.416,31.416,0,0,0-4.574,4.5,29.507,29.507,0,0,0-4.5,3.887,27.371,27.371,0,0,0-3.887,3.2,8.916,8.916,0,0,0-1.983,1.373l-.61.61-1.982,1.3c-.61,0-1.219-.687-1.906-.687a13.67,13.67,0,0,0-1.3-1.906c0-.686-.61-1.3-.61-1.9v-3.964a9.175,9.175,0,0,0,1.22-2.592c.686-1.22,1.373-1.906,1.981-3.2a5.132,5.132,0,0,0,1.3-3.2,4.944,4.944,0,0,0,1.3-3.279A4.084,4.084,0,0,0,1009.265,171.894Z" transform="translate(-921.141 -122.505)" fill="#fff"/>
  <path id="Path_271" data-name="Path 271" d="M1041.3,175.974h.687c0-.609,0-.609.609,0h0v1.3c-.609,0-.609.686-1.3,1.3a13.25,13.25,0,0,0-2.592,3.2c-1.3,1.371-2.592,2.592-3.888,3.963-1.3,1.22-2.591,1.906-3.889,3.2a35.684,35.684,0,0,1-3.277,2.593,9.468,9.468,0,0,1-3.812,1.3l-1.981-1.3a2.469,2.469,0,0,1-1.3-.61,7.533,7.533,0,0,1,0-8.462c.686-1.3,1.3-2.592,1.906-3.887a18.5,18.5,0,0,1,3.277-3.889c.686-1.3,1.906-1.906,3.278-2.592a4.406,4.406,0,0,1,1.9-1.906,7.509,7.509,0,0,0,2.593-1.371l1.3.686a2.033,2.033,0,0,1,1.3.686c0,.61.686.61.686.61,0,1.981.61,2.592.61,3.887l-1.3,1.906c0,1.373-.687,1.983-1.906,3.279,0,0-1.372,1.3-2.592,2.592a25.345,25.345,0,0,0-2.592,1.906,5.089,5.089,0,0,1-2.593,1.371,2.255,2.255,0,0,1-1.371.61l-.61,1.983c-.61.609-.61.609,0,1.219h.61a3.688,3.688,0,0,0,3.277-1.219,11.676,11.676,0,0,0,4.5-3.279c1.372-1.3,3.279-2.592,4.574-3.887C1038.707,179.176,1040,177.957,1041.3,175.974Zm-7.775-1.3a.673.673,0,0,0-.687.687l-1.219,1.219-1.373,1.373c-.61.61-1.219,1.219-1.219,1.906a13.992,13.992,0,0,0-3.278,5.183c1.3-1.3,2.592-1.906,3.887-3.277a37.2,37.2,0,0,0,2.593-3.2,7.553,7.553,0,0,1,1.3-1.983A1.557,1.557,0,0,0,1033.523,174.678Z" transform="translate(-916.202 -120.106)" fill="#fff"/>
  <path id="Path_272" data-name="Path 272" d="M1045.476,192.963a5,5,0,0,1-1.906-1.906,9.263,9.263,0,0,1-1.373-4.574l.687-1.3c0-.686.685-1.3.685-1.906.61-1.371.61-1.981,1.219-2.592a8.287,8.287,0,0,1,1.373-1.981c.61-1.983,1.906-3.2,3.2-5.185,0,0-.61,0-1.3,1.3a13.514,13.514,0,0,0-3.279,2.593c-1.219,1.3-1.9,2.592-3.2,3.887s-2.592,3.2-3.887,4.573a18.472,18.472,0,0,1-1.906,3.2c-1.371,1.3-1.371,1.983-1.371,1.983,0,1.219,0,1.219-.61,1.906l-.61-.687-1.373-1.906a5.212,5.212,0,0,1-.609-1.9v-2.593a30.562,30.562,0,0,0,2.592-3.963s1.3-1.906,1.982-3.2a11.507,11.507,0,0,1,2.593-3.2c.609-1.373,1.219-2.593,1.219-2.593a9.376,9.376,0,0,0,.686-3.963l.687-.61a.6.6,0,0,1,.609.61c1.3.686,1.3,1.371,1.983,1.981,0,1.3.61,1.981.61,3.2,0,.686,0,1.373-.61,1.373v1.219L1042.2,178.1l4.574-4.574c.61-.61,1.3-1.3,1.982-1.3.61-.686,1.22-1.3,1.22-1.906l1.981-.686.61-.686a2.394,2.394,0,0,0,1.373.686,2.47,2.47,0,0,1,.609,1.3,2.146,2.146,0,0,0,.61,1.3v1.906a5.3,5.3,0,0,1-.61,1.981s-1.3,1.983-1.981,3.2a16.78,16.78,0,0,0-2.592,3.964c-.61,1.22-1.906,1.906-2.592,3.2-.61,1.3-.61,1.983-1.22,2.592v1.3s1.906-.686,3.2-1.3c.61-1.3,1.981-1.981,3.2-3.887a29.669,29.669,0,0,0,3.964-4.5c1.219-1.373,2.592-3.277,3.812-4.574v-.609h1.371v.609a.624.624,0,0,1-.686.61,2.3,2.3,0,0,1-.686,1.983,17.311,17.311,0,0,0-2.593,3.2c-.609.686-1.9,1.981-3.2,3.277a17.932,17.932,0,0,1-3.2,3.887c-.685.61-1.981,1.983-2.591,2.593C1047.382,192.276,1046.772,192.963,1045.476,192.963Z" transform="translate(-912.604 -120.248)" fill="#fff"/>
  <path id="Path_273" data-name="Path 273" d="M1081,169.946c.687.609.687.609,0,.609v.687h-.609a2.474,2.474,0,0,1-.61-1.3,7.227,7.227,0,0,1-1.983-1.3c-.609-.687-1.3-.687-2.592-1.3h-5.793c-1.373,1.983-2.592,3.2-3.277,5.795-1.3,1.981-2.593,3.963-3.889,5.869a23.455,23.455,0,0,0-3.2,5.87,24.95,24.95,0,0,0-2.592,4.5,24.551,24.551,0,0,0-1.371,3.887l.686,1.3a7.914,7.914,0,0,1,1.906-1.3c1.371-1.3,1.982-1.981,3.277-3.2,1.3-1.371,3.279-3.277,4.5-4.573,1.373-1.983,2.592-3.2,3.279-5.185,0,0,.686,0,.686-.609h.61a.6.6,0,0,0,.61.609,2.162,2.162,0,0,0-.61,1.3,18.02,18.02,0,0,1-1.3,1.3,10.92,10.92,0,0,1-2.592,3.2c-.687,1.371-1.906,2.592-2.593,3.963-1.3,1.22-2.592,1.906-3.277,3.2a37.008,37.008,0,0,1-3.2,2.593c-1.3.609-1.982,1.3-2.592,1.3-1.3,0-1.983-.687-2.592-.687,0,0-.61-.609-1.3-1.219l-.687-1.983v-1.981l.687-1.906c.686-1.3.686-1.906,1.3-3.277a38.758,38.758,0,0,0,1.982-4.5,11.838,11.838,0,0,0,2.592-4.5c1.22-1.371,1.906-3.277,3.2-4.573a18.345,18.345,0,0,1,2.591-5.185,5.22,5.22,0,0,1-2.591.61h-2.592c-1.3,0-2.592-.61-3.887-.61l-1.906-.609c-.686-.687-1.372-1.373-1.372-1.373a1.888,1.888,0,0,1-.61-1.219,5.741,5.741,0,0,1-.609-1.983,1.888,1.888,0,0,1,1.219.61s1.372.686,2.592,1.373a10.435,10.435,0,0,0,4.574.609h5.793a25.439,25.439,0,0,0,3.964-6.479c.61-1.3,1.219-2.592,1.219-2.592,0-1.3,0-1.3.687-1.3a2,2,0,0,1,1.3.609,5.328,5.328,0,0,1,1.981,1.983c0,.609.61,1.3.61,2.592,0,.61-.61,1.3-.61,1.981a9.552,9.552,0,0,1-1.371,2.593h1.371a8.37,8.37,0,0,1,3.812.609,2.866,2.866,0,0,1,1.981.61c1.3,1.373,1.983,1.981,2.593,2.592Z" transform="translate(-907.348 -124.445)" fill="#fff"/>
  <path id="Path_274" data-name="Path 274" d="M1074.521,192.822c-.609,0-1.3-.687-1.981-1.3-.61-.61-.61-1.3-1.219-1.983v-2.592a5.23,5.23,0,0,1,.609-2.592,31.206,31.206,0,0,1-3.2,4.573s-.686.61-1.371,1.3c0,0-.61.687-1.22,1.3l-1.373.609-1.219.687a2.4,2.4,0,0,1-1.372-.687,2.131,2.131,0,0,1-1.219-.609c-.687-.61-.687-1.3-1.373-1.983v-1.906a4.614,4.614,0,0,1,.686-2.592c.687-.686,1.3-1.906,1.906-2.592.687-1.3,1.372-2.592,1.983-3.887a18.337,18.337,0,0,0,1.982-3.2c.61-1.373,1.22-2.593,1.22-2.593a6.53,6.53,0,0,1,1.371-2.592c0-1.371,0-1.371.61-1.371a2.092,2.092,0,0,0,1.3.686l1.3,1.906a2.64,2.64,0,0,1,.61,1.981,9.009,9.009,0,0,1-1.219,2.592,5.663,5.663,0,0,1-1.983,3.889c-.61,1.3-1.3,2.592-1.981,3.887a15.411,15.411,0,0,0-2.593,3.2,5.739,5.739,0,0,0-.609,1.981,5.3,5.3,0,0,0-.61,1.983s1.219-.687,2.592-1.373a10.415,10.415,0,0,1,2.592-3.2,26.827,26.827,0,0,0,3.812-4.573c1.372-1.22,2.591-3.2,3.964-4.5.61-1.906,1.906-3.279,2.592-4.5.61-1.371,1.22-2.592,1.22-2.592,0-1.371,0-1.371.686-1.371,0,.686.686.686,1.3,1.371,0,0,.61.61,1.3,1.22a3.218,3.218,0,0,1,.686,1.981c0,1.3-.686,1.983-1.371,3.2a11.636,11.636,0,0,1-1.906,3.279c-.686,1.3-1.3,2.592-1.906,3.887a33.936,33.936,0,0,0-2.592,3.2,5.25,5.25,0,0,0-.686,1.981c-.687,1.3-.687,1.983,0,1.983a2.38,2.38,0,0,1,1.3-.687,23.178,23.178,0,0,1,1.981-1.9,26.818,26.818,0,0,1,2.592-2.593,18.123,18.123,0,0,0,2.592-3.277,15.811,15.811,0,0,0,2.593-3.279c.609-1.219,1.906-1.9,2.592-3.2l.61-.609h.609v.609a2.153,2.153,0,0,1-.609,1.3,2,2,0,0,1-.61,1.3c-.686,1.3-1.983,1.981-2.592,3.2a8,8,0,0,1-3.279,3.277,16.465,16.465,0,0,1-3.277,3.887,6.046,6.046,0,0,1-3.2,2.593A5.221,5.221,0,0,1,1074.521,192.822Z" transform="translate(-904.067 -120.106)" fill="#fff"/>
  <path id="Path_275" data-name="Path 275" d="M1103.2,178.514l.685-.609h.61v1.906a18.076,18.076,0,0,1-1.3,1.3,10.9,10.9,0,0,1-2.592,3.2c-.687,1.371-1.906,2.592-2.592,3.963-1.3,1.22-2.593,1.906-3.889,3.2-.609,1.3-1.981,1.983-2.591,2.593-1.3.609-1.982,1.3-2.592,1.3-1.3,0-1.982-.687-2.592-.687,0,0-.61-.609-1.3-1.219l-.687-1.983v-1.981a6.4,6.4,0,0,1,.687-2.592,11.137,11.137,0,0,1,1.3-2.592,12.21,12.21,0,0,1,1.981-3.2,11.066,11.066,0,0,1,1.906-3.2,6.806,6.806,0,0,0-2.592.609c-1.3,0-2.592.61-3.888.61l-.61-.61s-1.372,0-1.372-.609a8.447,8.447,0,0,0-1.219-1.983v-3.2a11.677,11.677,0,0,1,.609-4.573,10.431,10.431,0,0,1,2.593-4.574c.609-.61,1.982-1.906,1.982-1.906,1.906-1.3,2.592-1.3,2.592-1.3,1.906,0,2.592,0,3.2.61.61.686.61,1.373.61,2.592v1.373l-.61,1.906c-.61.686-.61,1.3-1.3,1.9a9.855,9.855,0,0,1-1.3,2.593,19.206,19.206,0,0,1-3.2,4.573l2.592-1.3a8.612,8.612,0,0,0,2.592-1.3,4.821,4.821,0,0,1,1.906-.61c.687-.686.687-.686,1.3-1.371a2.031,2.031,0,0,1,1.3.686l.687.686,1.219,1.22a2.442,2.442,0,0,1,.687,1.981l-.687,1.983h0l-1.906,1.906c-.686,1.3-1.3,2.592-1.3,2.592a46.426,46.426,0,0,1-2.591,3.887,4.013,4.013,0,0,0-1.3,2.592,4.013,4.013,0,0,0-1.3,2.592l1.3,1.3h0a7.92,7.92,0,0,1,1.906-1.3c1.372-.609,1.981-1.981,3.277-3.2,1.3-1.371,2.593-3.277,3.889-4.573C1100.606,181.716,1101.9,180.5,1103.2,178.514Zm-19.439-5.793v.61l.609,1.3a.672.672,0,0,0,.687.686,16.924,16.924,0,0,1,1.906-3.277l1.371-2.592c.61-1.3.61-2.592,1.22-2.592l-.61-1.3-1.3,1.3-1.906,1.3c-.686,1.3-.686,1.981-1.373,2.592Z" transform="translate(-897.753 -122.646)" fill="#fff"/>
  <path id="Path_276" data-name="Path 276" d="M1116.005,175.974h.61c0-.609.686-.609.686,0h0v1.3c-.686,0-.686.686-1.3,1.3-.61,1.3-1.981,1.981-2.592,3.2-1.3,1.371-2.592,2.592-3.888,3.963-.687,1.22-1.906,1.906-3.279,3.2a12.551,12.551,0,0,1-3.811,2.593,10.122,10.122,0,0,1-3.964,1.3c-.61,0-1.22-.687-1.906-1.3l-1.3-1.3a5.166,5.166,0,0,1-1.3-3.277,9.77,9.77,0,0,1,1.3-4.5c.609-1.3,1.3-2.592,1.982-3.887,1.22-1.3,1.906-2.593,3.2-3.889.61-1.3,1.983-1.906,3.2-2.592a3.525,3.525,0,0,1,2.592-1.906,7,7,0,0,0,1.983-1.371l1.3.686a1.89,1.89,0,0,1,1.3.686.6.6,0,0,0,.61.61c0,1.981.686,2.592.686,3.887l-.686,1.906c-.61,1.373-1.22,1.983-1.906,3.279a5.351,5.351,0,0,0-2.591,2.592c-1.3.686-1.906,1.3-3.279,1.906a8.47,8.47,0,0,1-1.906,1.371,5.205,5.205,0,0,1-1.906.61,1.89,1.89,0,0,0-.686,1.3v1.3l1.3.61c.61,0,1.3,0,3.2-1.219a18.838,18.838,0,0,0,3.964-3.279,29.506,29.506,0,0,0,4.5-3.887C1113.414,179.176,1114.71,177.957,1116.005,175.974Zm-7.775-1.3-.61.687a.623.623,0,0,0-.686.609l-1.3,1.3c-1.3,1.3-1.3,1.9-1.981,2.592-1.219,1.3-1.906,3.277-3.2,5.183,1.3-1.3,2.592-1.906,3.888-3.277a9.042,9.042,0,0,0,1.906-2.593c1.983-1.9,1.983-2.592,1.983-2.592A1.708,1.708,0,0,0,1108.23,174.678Z" transform="translate(-893.714 -120.106)" fill="#fff"/>
</svg>
